<mxfile host="app.diagrams.net" agent="Mozilla/5.0 (Windows NT 10.0; Win64; x64) AppleWebKit/537.36 (KHTML, like Gecko) Chrome/129.0.0.0 Safari/537.36 Edg/129.0.0.0" version="24.7.17">
  <diagram name="Страница — 1" id="th6WARTs6PV4EXHEDdjc">
    <mxGraphModel dx="1666" dy="795" grid="1" gridSize="10" guides="1" tooltips="1" connect="1" arrows="1" fold="1" page="1" pageScale="1" pageWidth="827" pageHeight="1169" math="0" shadow="0">
      <root>
        <mxCell id="0" />
        <mxCell id="1" parent="0" />
        <mxCell id="QF57DYZPfEIiyQPpDeCr-2" value="Зарегистрированный &lt;br&gt;пользователь" style="shape=umlActor;verticalLabelPosition=bottom;verticalAlign=top;html=1;outlineConnect=0;" parent="1" vertex="1">
          <mxGeometry x="150" y="520" width="30" height="60" as="geometry" />
        </mxCell>
        <mxCell id="QF57DYZPfEIiyQPpDeCr-3" value="Сотрудник" style="shape=umlActor;verticalLabelPosition=bottom;verticalAlign=top;html=1;outlineConnect=0;" parent="1" vertex="1">
          <mxGeometry x="760" y="540" width="30" height="60" as="geometry" />
        </mxCell>
        <mxCell id="QF57DYZPfEIiyQPpDeCr-4" value="Зарегистрироваться&lt;br&gt;как пользователь" style="ellipse;whiteSpace=wrap;html=1;" parent="1" vertex="1">
          <mxGeometry x="50" y="340" width="130" height="40" as="geometry" />
        </mxCell>
        <mxCell id="QF57DYZPfEIiyQPpDeCr-5" value="Авторизоваться как пользователь" style="ellipse;whiteSpace=wrap;html=1;" parent="1" vertex="1">
          <mxGeometry x="284" y="650" width="130" height="40" as="geometry" />
        </mxCell>
        <mxCell id="QF57DYZPfEIiyQPpDeCr-6" value="Создать заказ" style="ellipse;whiteSpace=wrap;html=1;" parent="1" vertex="1">
          <mxGeometry x="260" y="460" width="130" height="40" as="geometry" />
        </mxCell>
        <mxCell id="QF57DYZPfEIiyQPpDeCr-8" value="Создать логин" style="ellipse;whiteSpace=wrap;html=1;" parent="1" vertex="1">
          <mxGeometry x="10" y="450" width="130" height="40" as="geometry" />
        </mxCell>
        <mxCell id="QF57DYZPfEIiyQPpDeCr-9" value="Указать адрес" style="ellipse;whiteSpace=wrap;html=1;" parent="1" vertex="1">
          <mxGeometry x="305" y="565" width="130" height="40" as="geometry" />
        </mxCell>
        <mxCell id="QF57DYZPfEIiyQPpDeCr-10" value="Просмотреть меню" style="ellipse;whiteSpace=wrap;html=1;" parent="1" vertex="1">
          <mxGeometry x="190" y="360" width="130" height="40" as="geometry" />
        </mxCell>
        <mxCell id="QF57DYZPfEIiyQPpDeCr-11" value="Указать блюда" style="ellipse;whiteSpace=wrap;html=1;" parent="1" vertex="1">
          <mxGeometry x="348.5" y="360" width="130" height="40" as="geometry" />
        </mxCell>
        <mxCell id="QF57DYZPfEIiyQPpDeCr-12" value="" style="endArrow=none;html=1;rounded=0;entryX=0.051;entryY=0.228;entryDx=0;entryDy=0;entryPerimeter=0;" parent="1" target="QF57DYZPfEIiyQPpDeCr-5" edge="1">
          <mxGeometry width="50" height="50" relative="1" as="geometry">
            <mxPoint x="210" y="620" as="sourcePoint" />
            <mxPoint x="275" y="470" as="targetPoint" />
          </mxGeometry>
        </mxCell>
        <mxCell id="QF57DYZPfEIiyQPpDeCr-14" value="" style="endArrow=none;dashed=1;html=1;dashPattern=1 3;strokeWidth=2;rounded=0;entryX=0.5;entryY=0;entryDx=0;entryDy=0;exitX=0.304;exitY=1.008;exitDx=0;exitDy=0;exitPerimeter=0;" parent="1" source="QF57DYZPfEIiyQPpDeCr-4" target="QF57DYZPfEIiyQPpDeCr-8" edge="1">
          <mxGeometry width="50" height="50" relative="1" as="geometry">
            <mxPoint x="410" y="600" as="sourcePoint" />
            <mxPoint x="460" y="550" as="targetPoint" />
          </mxGeometry>
        </mxCell>
        <mxCell id="QF57DYZPfEIiyQPpDeCr-15" value="include" style="edgeLabel;html=1;align=center;verticalAlign=middle;resizable=0;points=[];" parent="QF57DYZPfEIiyQPpDeCr-14" vertex="1" connectable="0">
          <mxGeometry x="-0.1167" y="-2" relative="1" as="geometry">
            <mxPoint x="-7" y="-1" as="offset" />
          </mxGeometry>
        </mxCell>
        <mxCell id="QF57DYZPfEIiyQPpDeCr-17" value="" style="endArrow=none;dashed=1;html=1;dashPattern=1 3;strokeWidth=2;rounded=0;entryX=0.351;entryY=1.007;entryDx=0;entryDy=0;exitX=0.638;exitY=-0.025;exitDx=0;exitDy=0;entryPerimeter=0;exitPerimeter=0;" parent="1" source="QF57DYZPfEIiyQPpDeCr-6" target="QF57DYZPfEIiyQPpDeCr-11" edge="1">
          <mxGeometry width="50" height="50" relative="1" as="geometry">
            <mxPoint x="275" y="430" as="sourcePoint" />
            <mxPoint x="255" y="410" as="targetPoint" />
          </mxGeometry>
        </mxCell>
        <mxCell id="QF57DYZPfEIiyQPpDeCr-18" value="include" style="edgeLabel;html=1;align=center;verticalAlign=middle;resizable=0;points=[];" parent="QF57DYZPfEIiyQPpDeCr-17" vertex="1" connectable="0">
          <mxGeometry x="-0.1167" y="-2" relative="1" as="geometry">
            <mxPoint x="3" y="-5" as="offset" />
          </mxGeometry>
        </mxCell>
        <mxCell id="QF57DYZPfEIiyQPpDeCr-19" value="" style="endArrow=none;dashed=1;html=1;dashPattern=1 3;strokeWidth=2;rounded=0;entryX=0.5;entryY=0;entryDx=0;entryDy=0;exitX=0.606;exitY=0.978;exitDx=0;exitDy=0;exitPerimeter=0;" parent="1" source="QF57DYZPfEIiyQPpDeCr-6" target="QF57DYZPfEIiyQPpDeCr-9" edge="1">
          <mxGeometry width="50" height="50" relative="1" as="geometry">
            <mxPoint x="285" y="440" as="sourcePoint" />
            <mxPoint x="265" y="420" as="targetPoint" />
          </mxGeometry>
        </mxCell>
        <mxCell id="QF57DYZPfEIiyQPpDeCr-20" value="include" style="edgeLabel;html=1;align=center;verticalAlign=middle;resizable=0;points=[];" parent="QF57DYZPfEIiyQPpDeCr-19" vertex="1" connectable="0">
          <mxGeometry x="-0.1167" y="-2" relative="1" as="geometry">
            <mxPoint x="9" as="offset" />
          </mxGeometry>
        </mxCell>
        <mxCell id="QF57DYZPfEIiyQPpDeCr-21" value="" style="endArrow=none;html=1;rounded=0;entryX=0.081;entryY=0.162;entryDx=0;entryDy=0;entryPerimeter=0;" parent="1" target="QF57DYZPfEIiyQPpDeCr-41" edge="1">
          <mxGeometry width="50" height="50" relative="1" as="geometry">
            <mxPoint x="200" y="630" as="sourcePoint" />
            <mxPoint x="359" y="680" as="targetPoint" />
          </mxGeometry>
        </mxCell>
        <mxCell id="QF57DYZPfEIiyQPpDeCr-22" value="" style="endArrow=none;html=1;rounded=0;entryX=0;entryY=0;entryDx=0;entryDy=0;" parent="1" target="QF57DYZPfEIiyQPpDeCr-40" edge="1">
          <mxGeometry width="50" height="50" relative="1" as="geometry">
            <mxPoint x="180" y="630" as="sourcePoint" />
            <mxPoint x="354.9999999999998" y="720" as="targetPoint" />
          </mxGeometry>
        </mxCell>
        <mxCell id="QF57DYZPfEIiyQPpDeCr-23" value="" style="endArrow=none;html=1;rounded=0;exitX=0.962;exitY=0.35;exitDx=0;exitDy=0;exitPerimeter=0;" parent="1" source="QF57DYZPfEIiyQPpDeCr-41" edge="1">
          <mxGeometry width="50" height="50" relative="1" as="geometry">
            <mxPoint x="489" y="680" as="sourcePoint" />
            <mxPoint x="740" y="600" as="targetPoint" />
          </mxGeometry>
        </mxCell>
        <mxCell id="QF57DYZPfEIiyQPpDeCr-24" value="" style="endArrow=none;html=1;rounded=0;exitX=1;exitY=0.5;exitDx=0;exitDy=0;" parent="1" source="QF57DYZPfEIiyQPpDeCr-40" edge="1">
          <mxGeometry width="50" height="50" relative="1" as="geometry">
            <mxPoint x="484.9999999999998" y="720" as="sourcePoint" />
            <mxPoint x="740" y="620" as="targetPoint" />
          </mxGeometry>
        </mxCell>
        <mxCell id="QF57DYZPfEIiyQPpDeCr-25" value="Собрать заказ" style="ellipse;whiteSpace=wrap;html=1;" parent="1" vertex="1">
          <mxGeometry x="470" y="540" width="130" height="40" as="geometry" />
        </mxCell>
        <mxCell id="QF57DYZPfEIiyQPpDeCr-26" value="Авторизоваться как сотрудник" style="ellipse;whiteSpace=wrap;html=1;" parent="1" vertex="1">
          <mxGeometry x="510" y="350" width="130" height="40" as="geometry" />
        </mxCell>
        <mxCell id="QF57DYZPfEIiyQPpDeCr-27" value="Подтвердить готовность заказа" style="ellipse;whiteSpace=wrap;html=1;" parent="1" vertex="1">
          <mxGeometry x="500" y="590" width="130" height="40" as="geometry" />
        </mxCell>
        <mxCell id="QF57DYZPfEIiyQPpDeCr-28" value="Оценить обслуживание" style="ellipse;whiteSpace=wrap;html=1;" parent="1" vertex="1">
          <mxGeometry x="70" y="800" width="130" height="40" as="geometry" />
        </mxCell>
        <mxCell id="QF57DYZPfEIiyQPpDeCr-29" value="" style="endArrow=none;html=1;rounded=0;entryX=0.454;entryY=-0.05;entryDx=0;entryDy=0;entryPerimeter=0;" parent="1" target="QF57DYZPfEIiyQPpDeCr-28" edge="1">
          <mxGeometry width="50" height="50" relative="1" as="geometry">
            <mxPoint x="170" y="630" as="sourcePoint" />
            <mxPoint x="304" y="570" as="targetPoint" />
          </mxGeometry>
        </mxCell>
        <mxCell id="QF57DYZPfEIiyQPpDeCr-30" value="" style="endArrow=none;html=1;rounded=0;exitX=1;exitY=0.5;exitDx=0;exitDy=0;" parent="1" source="QF57DYZPfEIiyQPpDeCr-27" edge="1">
          <mxGeometry width="50" height="50" relative="1" as="geometry">
            <mxPoint x="495" y="750" as="sourcePoint" />
            <mxPoint x="740" y="580" as="targetPoint" />
          </mxGeometry>
        </mxCell>
        <mxCell id="QF57DYZPfEIiyQPpDeCr-31" value="" style="endArrow=none;html=1;rounded=0;exitX=1;exitY=0.5;exitDx=0;exitDy=0;" parent="1" source="QF57DYZPfEIiyQPpDeCr-25" edge="1">
          <mxGeometry width="50" height="50" relative="1" as="geometry">
            <mxPoint x="640" y="620" as="sourcePoint" />
            <mxPoint x="740" y="570" as="targetPoint" />
          </mxGeometry>
        </mxCell>
        <mxCell id="QF57DYZPfEIiyQPpDeCr-32" value="" style="endArrow=none;html=1;rounded=0;exitX=1;exitY=1;exitDx=0;exitDy=0;" parent="1" source="QF57DYZPfEIiyQPpDeCr-26" edge="1">
          <mxGeometry width="50" height="50" relative="1" as="geometry">
            <mxPoint x="610" y="570" as="sourcePoint" />
            <mxPoint x="740" y="550" as="targetPoint" />
          </mxGeometry>
        </mxCell>
        <mxCell id="QF57DYZPfEIiyQPpDeCr-33" value="Просмотреть список созданных заказов" style="ellipse;whiteSpace=wrap;html=1;" parent="1" vertex="1">
          <mxGeometry x="470" y="410" width="130" height="40" as="geometry" />
        </mxCell>
        <mxCell id="QF57DYZPfEIiyQPpDeCr-34" value="" style="endArrow=none;html=1;rounded=0;exitX=1;exitY=1;exitDx=0;exitDy=0;" parent="1" source="QF57DYZPfEIiyQPpDeCr-33" edge="1">
          <mxGeometry width="50" height="50" relative="1" as="geometry">
            <mxPoint x="620" y="420" as="sourcePoint" />
            <mxPoint x="740" y="560" as="targetPoint" />
          </mxGeometry>
        </mxCell>
        <mxCell id="QF57DYZPfEIiyQPpDeCr-35" value="Указать собранные блюда" style="ellipse;whiteSpace=wrap;html=1;" parent="1" vertex="1">
          <mxGeometry x="440" y="470" width="130" height="40" as="geometry" />
        </mxCell>
        <mxCell id="QF57DYZPfEIiyQPpDeCr-36" value="" style="endArrow=none;dashed=1;html=1;dashPattern=1 3;strokeWidth=2;rounded=0;entryX=0.5;entryY=1;entryDx=0;entryDy=0;exitX=0.5;exitY=0;exitDx=0;exitDy=0;" parent="1" source="QF57DYZPfEIiyQPpDeCr-25" target="QF57DYZPfEIiyQPpDeCr-35" edge="1">
          <mxGeometry width="50" height="50" relative="1" as="geometry">
            <mxPoint x="275" y="400" as="sourcePoint" />
            <mxPoint x="265" y="380" as="targetPoint" />
          </mxGeometry>
        </mxCell>
        <mxCell id="QF57DYZPfEIiyQPpDeCr-37" value="include" style="edgeLabel;html=1;align=center;verticalAlign=middle;resizable=0;points=[];" parent="QF57DYZPfEIiyQPpDeCr-36" vertex="1" connectable="0">
          <mxGeometry x="-0.1167" y="-2" relative="1" as="geometry">
            <mxPoint x="22" as="offset" />
          </mxGeometry>
        </mxCell>
        <mxCell id="QF57DYZPfEIiyQPpDeCr-38" value="Просмотреть оценку заказа" style="ellipse;whiteSpace=wrap;html=1;" parent="1" vertex="1">
          <mxGeometry x="570" y="790" width="130" height="40" as="geometry" />
        </mxCell>
        <mxCell id="QF57DYZPfEIiyQPpDeCr-39" value="" style="endArrow=none;html=1;rounded=0;exitX=0.669;exitY=0.05;exitDx=0;exitDy=0;exitPerimeter=0;" parent="1" source="QF57DYZPfEIiyQPpDeCr-38" edge="1">
          <mxGeometry width="50" height="50" relative="1" as="geometry">
            <mxPoint x="495" y="740" as="sourcePoint" />
            <mxPoint x="750" y="630" as="targetPoint" />
          </mxGeometry>
        </mxCell>
        <mxCell id="QF57DYZPfEIiyQPpDeCr-40" value="Просмотреть детали прошлых заказов" style="ellipse;whiteSpace=wrap;html=1;" parent="1" vertex="1">
          <mxGeometry x="260" y="820" width="130" height="40" as="geometry" />
        </mxCell>
        <mxCell id="QF57DYZPfEIiyQPpDeCr-41" value="Просмотреть детали заказа" style="ellipse;whiteSpace=wrap;html=1;" parent="1" vertex="1">
          <mxGeometry x="280" y="735" width="130" height="40" as="geometry" />
        </mxCell>
        <mxCell id="0Adb5E3FH8UZHR7qbvW0-1" value="Менеджер" style="shape=umlActor;verticalLabelPosition=bottom;verticalAlign=top;html=1;outlineConnect=0;" vertex="1" parent="1">
          <mxGeometry x="650" y="110" width="30" height="60" as="geometry" />
        </mxCell>
        <mxCell id="0Adb5E3FH8UZHR7qbvW0-2" value="Авторизоваться как&amp;nbsp;&lt;br&gt;менеджер" style="ellipse;whiteSpace=wrap;html=1;" vertex="1" parent="1">
          <mxGeometry x="650" y="260" width="130" height="40" as="geometry" />
        </mxCell>
        <mxCell id="0Adb5E3FH8UZHR7qbvW0-4" value="Создать учётную запись сотрудника" style="ellipse;whiteSpace=wrap;html=1;" vertex="1" parent="1">
          <mxGeometry x="500" y="230" width="130" height="40" as="geometry" />
        </mxCell>
        <mxCell id="0Adb5E3FH8UZHR7qbvW0-6" value="" style="endArrow=none;dashed=1;html=1;dashPattern=1 3;strokeWidth=2;rounded=0;entryX=0.5;entryY=1;entryDx=0;entryDy=0;exitX=0.5;exitY=0;exitDx=0;exitDy=0;" edge="1" parent="1" source="QF57DYZPfEIiyQPpDeCr-26" target="0Adb5E3FH8UZHR7qbvW0-4">
          <mxGeometry width="50" height="50" relative="1" as="geometry">
            <mxPoint x="545" y="550" as="sourcePoint" />
            <mxPoint x="515" y="520" as="targetPoint" />
          </mxGeometry>
        </mxCell>
        <mxCell id="0Adb5E3FH8UZHR7qbvW0-7" value="include" style="edgeLabel;html=1;align=center;verticalAlign=middle;resizable=0;points=[];" vertex="1" connectable="0" parent="0Adb5E3FH8UZHR7qbvW0-6">
          <mxGeometry x="-0.1167" y="-2" relative="1" as="geometry">
            <mxPoint x="4" y="-8" as="offset" />
          </mxGeometry>
        </mxCell>
        <mxCell id="0Adb5E3FH8UZHR7qbvW0-8" value="Редактировать учётную запись сотрудника" style="ellipse;whiteSpace=wrap;html=1;" vertex="1" parent="1">
          <mxGeometry x="435" y="170" width="135" height="40" as="geometry" />
        </mxCell>
        <mxCell id="0Adb5E3FH8UZHR7qbvW0-11" value="" style="endArrow=none;html=1;rounded=0;entryX=0.5;entryY=0;entryDx=0;entryDy=0;" edge="1" parent="1" target="0Adb5E3FH8UZHR7qbvW0-2">
          <mxGeometry width="50" height="50" relative="1" as="geometry">
            <mxPoint x="670" y="200" as="sourcePoint" />
            <mxPoint x="779" y="476" as="targetPoint" />
          </mxGeometry>
        </mxCell>
        <mxCell id="0Adb5E3FH8UZHR7qbvW0-12" value="" style="endArrow=none;html=1;rounded=0;exitX=1;exitY=0;exitDx=0;exitDy=0;" edge="1" parent="1" source="0Adb5E3FH8UZHR7qbvW0-4">
          <mxGeometry width="50" height="50" relative="1" as="geometry">
            <mxPoint x="690" y="210" as="sourcePoint" />
            <mxPoint x="650" y="200" as="targetPoint" />
          </mxGeometry>
        </mxCell>
        <mxCell id="0Adb5E3FH8UZHR7qbvW0-13" value="" style="endArrow=none;html=1;rounded=0;exitX=1;exitY=0.5;exitDx=0;exitDy=0;" edge="1" parent="1" source="0Adb5E3FH8UZHR7qbvW0-8">
          <mxGeometry width="50" height="50" relative="1" as="geometry">
            <mxPoint x="580" y="160" as="sourcePoint" />
            <mxPoint x="630" y="180" as="targetPoint" />
          </mxGeometry>
        </mxCell>
        <mxCell id="0Adb5E3FH8UZHR7qbvW0-15" value="Незарегистрированный &lt;br&gt;пользователь" style="shape=umlActor;verticalLabelPosition=bottom;verticalAlign=top;html=1;outlineConnect=0;" vertex="1" parent="1">
          <mxGeometry x="170" y="160" width="30" height="60" as="geometry" />
        </mxCell>
        <mxCell id="0Adb5E3FH8UZHR7qbvW0-22" value="" style="endArrow=none;html=1;rounded=0;entryX=0.5;entryY=0;entryDx=0;entryDy=0;" edge="1" parent="1" target="QF57DYZPfEIiyQPpDeCr-10">
          <mxGeometry width="50" height="50" relative="1" as="geometry">
            <mxPoint x="190" y="260" as="sourcePoint" />
            <mxPoint x="273" y="496" as="targetPoint" />
          </mxGeometry>
        </mxCell>
        <mxCell id="0Adb5E3FH8UZHR7qbvW0-23" value="" style="endArrow=none;html=1;rounded=0;entryX=0.5;entryY=0;entryDx=0;entryDy=0;" edge="1" parent="1" target="QF57DYZPfEIiyQPpDeCr-4">
          <mxGeometry width="50" height="50" relative="1" as="geometry">
            <mxPoint x="180" y="260" as="sourcePoint" />
            <mxPoint x="133" y="339" as="targetPoint" />
          </mxGeometry>
        </mxCell>
        <mxCell id="0Adb5E3FH8UZHR7qbvW0-25" value="" style="endArrow=none;html=1;rounded=0;exitX=0.71;exitY=1.007;exitDx=0;exitDy=0;exitPerimeter=0;" edge="1" parent="1" source="QF57DYZPfEIiyQPpDeCr-4">
          <mxGeometry width="50" height="50" relative="1" as="geometry">
            <mxPoint x="170" y="400" as="sourcePoint" />
            <mxPoint x="161" y="500" as="targetPoint" />
          </mxGeometry>
        </mxCell>
        <mxCell id="0Adb5E3FH8UZHR7qbvW0-26" value="" style="endArrow=none;html=1;rounded=0;exitX=0.5;exitY=1;exitDx=0;exitDy=0;" edge="1" parent="1" source="QF57DYZPfEIiyQPpDeCr-10">
          <mxGeometry width="50" height="50" relative="1" as="geometry">
            <mxPoint x="220" y="414" as="sourcePoint" />
            <mxPoint x="180" y="500" as="targetPoint" />
          </mxGeometry>
        </mxCell>
        <mxCell id="0Adb5E3FH8UZHR7qbvW0-29" value="" style="endArrow=none;html=1;rounded=0;exitX=0;exitY=0.5;exitDx=0;exitDy=0;" edge="1" parent="1" source="QF57DYZPfEIiyQPpDeCr-6">
          <mxGeometry width="50" height="50" relative="1" as="geometry">
            <mxPoint x="275" y="440" as="sourcePoint" />
            <mxPoint x="190" y="510" as="targetPoint" />
          </mxGeometry>
        </mxCell>
        <mxCell id="0Adb5E3FH8UZHR7qbvW0-30" value="" style="endArrow=none;dashed=1;html=1;dashPattern=1 3;strokeWidth=2;rounded=0;entryX=0.351;entryY=1.007;entryDx=0;entryDy=0;exitX=1;exitY=0;exitDx=0;exitDy=0;entryPerimeter=0;" edge="1" parent="1" source="QF57DYZPfEIiyQPpDeCr-10">
          <mxGeometry width="50" height="50" relative="1" as="geometry">
            <mxPoint x="310" y="350" as="sourcePoint" />
            <mxPoint x="361" y="291" as="targetPoint" />
          </mxGeometry>
        </mxCell>
        <mxCell id="0Adb5E3FH8UZHR7qbvW0-31" value="include" style="edgeLabel;html=1;align=center;verticalAlign=middle;resizable=0;points=[];" vertex="1" connectable="0" parent="0Adb5E3FH8UZHR7qbvW0-30">
          <mxGeometry x="-0.1167" y="-2" relative="1" as="geometry">
            <mxPoint x="3" y="-5" as="offset" />
          </mxGeometry>
        </mxCell>
        <mxCell id="0Adb5E3FH8UZHR7qbvW0-32" value="Выбрать ресторан" style="ellipse;whiteSpace=wrap;html=1;" vertex="1" parent="1">
          <mxGeometry x="310" y="260" width="130" height="40" as="geometry" />
        </mxCell>
      </root>
    </mxGraphModel>
  </diagram>
</mxfile>
